<svg width="100%" viewBox="0 0 115 41" fill="none" xmlns="http://www.w3.org/2000/svg"><path d="M1.5 1L2.74444 2.61495C3.98889 4.2299 6.47778 7.4598 8.96667 9.07151C11.4556 10.6832 13.9444 10.6767 16.4333 11.6127C18.9222 12.5487 21.4111 14.4271 23.9 16.6724C26.3889 18.9178 28.8778 21.5301 31.3667 20.1977C33.8556 18.8652 36.3444 13.5878 38.8333 11.3638C41.3222 9.13969 43.8111 9.96891 46.3 11.9894C48.7889 14.0099 51.2778 17.2217 53.7667 16.2045C56.2556 15.1873 58.7444 9.9412 61.2333 11.2783C63.7222 12.6155 66.2111 20.5359 68.7 21.4684C71.1889 22.401 73.6778 16.3458 76.1667 16.0009C78.6556 15.6561 81.1444 21.0217 83.6333 24.2684C86.1222 27.515 88.6111 28.6428 91.1 27.4369C93.5889 26.2311 96.0778 22.6916 98.5667 22.7117C101.056 22.7317 103.544 26.3112 106.033 29.7859C108.522 33.2605 111.011 36.6302 112.256 38.3151L113.5 40" stroke="red" stroke-width="1"></path></svg>